<svg width="50" height="50" viewBox="0 0 50 50" fill="none" xmlns="http://www.w3.org/2000/svg">
<mask id="path-1-inside-1_115_1119" fill="white">
<path d="M26.5438 43.5771C25.571 43.5765 24.5995 43.5033 23.6376 43.3583C19.4247 42.6921 15.5575 40.631 12.6556 37.5051C9.75367 34.3793 7.9851 30.3698 7.63328 26.1192C7.28146 21.8685 8.36676 17.6228 10.7153 14.0624C13.0638 10.502 16.5395 7.83311 20.5855 6.48333C21.0185 6.33687 21.4839 6.31407 21.9292 6.41748C22.3745 6.5209 22.7821 6.74643 23.1063 7.06875C23.4578 7.41088 23.7072 7.84396 23.8268 8.31963C23.9463 8.79531 23.9313 9.29486 23.7834 9.7625C23.2273 11.5693 22.9787 13.4567 23.048 15.3458C23.2058 18.3086 24.126 21.1805 25.7195 23.6833C27.3131 26.186 29.526 28.2348 32.1438 29.6313C34.5012 30.9715 37.1633 31.6839 39.8751 31.7C40.3472 31.7065 40.8086 31.8422 41.2092 32.0922C41.6098 32.3422 41.9343 32.6971 42.1476 33.1183C42.3609 33.5396 42.4549 34.0112 42.4194 34.4821C42.3838 34.953 42.2201 35.4051 41.9459 35.7896C40.1721 38.2077 37.8529 40.1731 35.1767 41.5263C32.5004 42.8794 29.5427 43.582 26.5438 43.5771ZM21.3771 8.4375C21.3311 8.4376 21.2853 8.44534 21.2417 8.46042C18.709 9.3009 16.4105 10.7274 14.5332 12.6239C12.6559 14.5204 11.2529 16.8333 10.4382 19.3745C9.62354 21.9156 9.42029 24.6132 9.84499 27.2477C10.2697 29.8822 11.3103 32.3792 12.8823 34.5356C14.4542 36.692 16.513 38.4468 18.8912 39.6573C21.2693 40.8678 23.8997 41.4998 26.5682 41.5018C29.2367 41.5038 31.868 40.8758 34.248 39.6689C36.628 38.462 38.6895 36.7103 40.2646 34.5563C40.3151 34.4856 40.3444 34.4021 40.3492 34.3154C40.354 34.2287 40.334 34.1425 40.2917 34.0667C40.2545 33.9835 40.1944 33.9127 40.1184 33.8625C40.0424 33.8124 39.9536 33.7849 39.8626 33.7833C36.8034 33.7659 33.7997 32.9655 31.1376 31.4583C28.2034 29.8876 25.7249 27.5853 23.9425 24.7747C22.1601 21.964 21.1344 18.7405 20.9646 15.4167C20.8897 13.2959 21.1714 11.1775 21.798 9.15C21.8289 9.04719 21.8319 8.93798 21.8067 8.83362C21.7814 8.72926 21.7288 8.63352 21.6542 8.55625C21.6188 8.51836 21.5758 8.48825 21.5282 8.46781C21.4805 8.44737 21.429 8.43705 21.3771 8.4375Z"/>
</mask>
<path d="M26.5438 43.5771C25.571 43.5765 24.5995 43.5033 23.6376 43.3583C19.4247 42.6921 15.5575 40.631 12.6556 37.5051C9.75367 34.3793 7.9851 30.3698 7.63328 26.1192C7.28146 21.8685 8.36676 17.6228 10.7153 14.0624C13.0638 10.502 16.5395 7.83311 20.5855 6.48333C21.0185 6.33687 21.4839 6.31407 21.9292 6.41748C22.3745 6.5209 22.7821 6.74643 23.1063 7.06875C23.4578 7.41088 23.7072 7.84396 23.8268 8.31963C23.9463 8.79531 23.9313 9.29486 23.7834 9.7625C23.2273 11.5693 22.9787 13.4567 23.048 15.3458C23.2058 18.3086 24.126 21.1805 25.7195 23.6833C27.3131 26.186 29.526 28.2348 32.1438 29.6313C34.5012 30.9715 37.1633 31.6839 39.8751 31.7C40.3472 31.7065 40.8086 31.8422 41.2092 32.0922C41.6098 32.3422 41.9343 32.6971 42.1476 33.1183C42.3609 33.5396 42.4549 34.0112 42.4194 34.4821C42.3838 34.953 42.2201 35.4051 41.9459 35.7896C40.1721 38.2077 37.8529 40.1731 35.1767 41.5263C32.5004 42.8794 29.5427 43.582 26.5438 43.5771ZM21.3771 8.4375C21.3311 8.4376 21.2853 8.44534 21.2417 8.46042C18.709 9.3009 16.4105 10.7274 14.5332 12.6239C12.6559 14.5204 11.2529 16.8333 10.4382 19.3745C9.62354 21.9156 9.42029 24.6132 9.84499 27.2477C10.2697 29.8822 11.3103 32.3792 12.8823 34.5356C14.4542 36.692 16.513 38.4468 18.8912 39.6573C21.2693 40.8678 23.8997 41.4998 26.5682 41.5018C29.2367 41.5038 31.868 40.8758 34.248 39.6689C36.628 38.462 38.6895 36.7103 40.2646 34.5563C40.3151 34.4856 40.3444 34.4021 40.3492 34.3154C40.354 34.2287 40.334 34.1425 40.2917 34.0667C40.2545 33.9835 40.1944 33.9127 40.1184 33.8625C40.0424 33.8124 39.9536 33.7849 39.8626 33.7833C36.8034 33.7659 33.7997 32.9655 31.1376 31.4583C28.2034 29.8876 25.7249 27.5853 23.9425 24.7747C22.1601 21.964 21.1344 18.7405 20.9646 15.4167C20.8897 13.2959 21.1714 11.1775 21.798 9.15C21.8289 9.04719 21.8319 8.93798 21.8067 8.83362C21.7814 8.72926 21.7288 8.63352 21.6542 8.55625C21.6188 8.51836 21.5758 8.48825 21.5282 8.46781C21.4805 8.44737 21.429 8.43705 21.3771 8.4375Z" fill="black"/>
<path d="M26.5438 43.5771L26.5488 40.5771L26.5458 40.5771L26.5438 43.5771ZM23.6376 43.3583L23.169 46.3215L23.1797 46.3232L23.1904 46.3248L23.6376 43.3583ZM20.5855 6.48333L21.5349 9.32917L21.5466 9.32521L20.5855 6.48333ZM23.1063 7.06875L20.9912 9.19622L21.0024 9.20736L21.0137 9.21839L23.1063 7.06875ZM23.7834 9.7625L20.9231 8.85781L20.9196 8.86886L20.9162 8.87993L23.7834 9.7625ZM23.048 15.3458L20.05 15.4559L20.0509 15.4806L20.0522 15.5054L23.048 15.3458ZM32.1438 29.6313L33.6265 27.0233L33.5914 27.0033L33.5558 26.9843L32.1438 29.6313ZM39.8751 31.7L39.9166 28.7003L39.9048 28.7001L39.8929 28.7001L39.8751 31.7ZM41.9459 35.7896L44.3649 37.564L44.3768 37.5478L44.3884 37.5314L41.9459 35.7896ZM21.3771 8.4375L21.3834 11.4375L21.3934 11.4375L21.4034 11.4374L21.3771 8.4375ZM21.2417 8.46042L22.1866 11.3077L22.2048 11.3017L22.223 11.2954L21.2417 8.46042ZM40.2646 34.5563L42.6862 36.3271L42.6966 36.3129L42.7069 36.2985L40.2646 34.5563ZM40.2917 34.0667L37.5535 35.2923L37.6077 35.4132L37.6722 35.5289L40.2917 34.0667ZM39.8626 33.7833L39.9138 30.7838L39.8967 30.7835L39.8796 30.7834L39.8626 33.7833ZM31.1376 31.4583L32.6156 28.8477L32.5847 28.8302L32.5534 28.8135L31.1376 31.4583ZM20.9646 15.4167L17.9665 15.5226L17.9674 15.5461L17.9686 15.5696L20.9646 15.4167ZM21.798 9.15L24.6642 10.0357L24.6674 10.0254L24.6706 10.0151L21.798 9.15ZM21.6542 8.55625L19.4638 10.6061L19.4795 10.6229L19.4955 10.6394L21.6542 8.55625ZM26.5438 43.5771L26.5458 40.5771C25.7219 40.5765 24.8993 40.5146 24.0847 40.3918L23.6376 43.3583L23.1904 46.3248C24.2998 46.492 25.42 46.5764 26.5419 46.5771L26.5438 43.5771ZM23.6376 43.3583L24.1062 40.3952C20.557 39.8339 17.299 38.0974 14.8542 35.464L12.6556 37.5051L10.457 39.5463C13.816 43.1645 18.2925 45.5504 23.169 46.3215L23.6376 43.3583ZM12.6556 37.5051L14.8542 35.464C12.4094 32.8306 10.9195 29.4528 10.6231 25.8717L7.63328 26.1192L4.6435 26.3666C5.05074 31.2869 7.09792 35.928 10.457 39.5463L12.6556 37.5051ZM7.63328 26.1192L10.6231 25.8717C10.3267 22.2907 11.241 18.7138 13.2195 15.7143L10.7153 14.0624L8.211 12.4106C5.49253 16.5318 4.23626 21.4464 4.6435 26.3666L7.63328 26.1192ZM10.7153 14.0624L13.2195 15.7143C15.1981 12.7148 18.1263 10.4663 21.5349 9.32915L20.5855 6.48333L19.6361 3.63752C14.9527 5.19993 10.9295 8.2893 8.211 12.4106L10.7153 14.0624ZM20.5855 6.48333L21.5466 9.32521C21.4512 9.35748 21.3487 9.36251 21.2505 9.33972L21.9292 6.41748L22.6078 3.49525C21.6191 3.26564 20.5859 3.31627 19.6244 3.64146L20.5855 6.48333ZM21.9292 6.41748L21.2505 9.33972C21.1524 9.31693 21.0626 9.26724 20.9912 9.19622L23.1063 7.06875L25.2215 4.94128C24.5016 4.22563 23.5965 3.72486 22.6078 3.49525L21.9292 6.41748ZM23.1063 7.06875L21.0137 9.21839C20.9667 9.17259 20.9333 9.11462 20.9173 9.05095L23.8268 8.31963L26.7363 7.58832C26.4811 6.57329 25.9489 5.64916 25.1989 4.91911L23.1063 7.06875ZM23.8268 8.31963L20.9173 9.05095C20.9013 8.98728 20.9033 8.92041 20.9231 8.85781L23.7834 9.7625L26.6437 10.6672C26.9594 9.66931 26.9914 8.60335 26.7363 7.58832L23.8268 8.31963ZM23.7834 9.7625L20.9162 8.87993C20.2611 11.0079 19.9683 13.2308 20.05 15.4559L23.048 15.3458L26.046 15.2358C25.989 13.6825 26.1934 12.1306 26.6506 10.6451L23.7834 9.7625ZM23.048 15.3458L20.0522 15.5054C20.2375 18.9841 21.3179 22.356 23.189 25.2945L25.7195 23.6833L28.2501 22.072C26.934 20.005 26.174 17.6332 26.0437 15.1863L23.048 15.3458ZM25.7195 23.6833L23.189 25.2945C25.06 28.2331 27.6582 30.6386 30.7319 32.2782L32.1438 29.6313L33.5558 26.9843C31.3938 25.831 29.5662 24.1389 28.2501 22.072L25.7195 23.6833ZM32.1438 29.6313L30.6611 32.2392C33.4652 33.8334 36.6317 34.6807 39.8572 34.6999L39.8751 31.7L39.8929 28.7001C37.695 28.687 35.5373 28.1096 33.6265 27.0233L32.1438 29.6313ZM39.8751 31.7L39.8335 34.6997C39.7582 34.6987 39.6847 34.677 39.6208 34.6372L41.2092 32.0922L42.7976 29.5472C41.9325 29.0073 40.9362 28.7144 39.9166 28.7003L39.8751 31.7ZM41.2092 32.0922L39.6208 34.6372C39.5569 34.5973 39.5052 34.5408 39.4712 34.4736L42.1476 33.1183L44.8241 31.7631C44.3634 30.8534 43.6626 30.0871 42.7976 29.5472L41.2092 32.0922ZM42.1476 33.1183L39.4712 34.4736C39.4372 34.4064 39.4222 34.3313 39.4279 34.2562L42.4194 34.4821L45.4108 34.708C45.4876 33.6912 45.2847 32.6728 44.8241 31.7631L42.1476 33.1183ZM42.4194 34.4821L39.4279 34.2562C39.4335 34.1811 39.4596 34.109 39.5034 34.0478L41.9459 35.7896L44.3884 37.5314C44.9805 36.7012 45.3341 35.7248 45.4108 34.708L42.4194 34.4821ZM41.9459 35.7896L39.5269 34.0152C38.0323 36.0527 36.0781 37.7088 33.823 38.849L35.1767 41.5263L36.5303 44.2035C39.6277 42.6374 42.312 40.3626 44.3649 37.564L41.9459 35.7896ZM35.1767 41.5263L33.823 38.849C31.568 39.9892 29.0757 40.5813 26.5488 40.5771L26.5438 43.5771L26.5389 46.5771C30.0097 46.5828 33.4329 45.7696 36.5303 44.2035L35.1767 41.5263ZM21.3771 8.4375L21.3709 5.43751C20.993 5.43829 20.6177 5.50179 20.2605 5.62542L21.2417 8.46042L22.223 11.2954C21.9529 11.3889 21.6692 11.4369 21.3834 11.4375L21.3771 8.4375ZM21.2417 8.46042L20.2968 5.6131C17.3159 6.60233 14.6107 8.28131 12.4011 10.5134L14.5332 12.6239L16.6653 14.7344C18.2104 13.1735 20.1021 11.9995 22.1866 11.3077L21.2417 8.46042ZM14.5332 12.6239L12.4011 10.5134C10.1916 12.7456 8.54025 15.4678 7.58142 18.4586L10.4382 19.3745L13.295 20.2903C13.9655 18.1989 15.1202 16.2953 16.6653 14.7344L14.5332 12.6239ZM10.4382 19.3745L7.58142 18.4586C6.62258 21.4494 6.38337 24.6244 6.88322 27.7251L9.84499 27.2477L12.8067 26.7702C12.4572 24.6019 12.6245 22.3818 13.295 20.2903L10.4382 19.3745ZM9.84499 27.2477L6.88322 27.7251C7.38308 30.8259 8.6079 33.7648 10.458 36.3028L12.8823 34.5356L15.3065 32.7684C14.0128 30.9936 13.1563 28.9385 12.8067 26.7702L9.84499 27.2477ZM12.8823 34.5356L10.458 36.3028C12.3081 38.8408 14.7313 40.9062 17.5303 42.3309L18.8912 39.6573L20.252 36.9837C18.2947 35.9875 16.6003 34.5432 15.3065 32.7684L12.8823 34.5356ZM18.8912 39.6573L17.5303 42.3309C20.3293 43.7556 23.4252 44.4994 26.5659 44.5018L26.5682 41.5018L26.5705 38.5018C24.3742 38.5001 22.2093 37.98 20.252 36.9837L18.8912 39.6573ZM26.5682 41.5018L26.5659 44.5018C29.7067 44.5042 32.8037 43.765 35.6048 42.3445L34.248 39.6689L32.8912 36.9933C30.9324 37.9866 28.7667 38.5034 26.5705 38.5018L26.5682 41.5018ZM34.248 39.6689L35.6048 42.3445C38.406 40.924 40.8323 38.8623 42.6862 36.3271L40.2646 34.5563L37.8431 32.7854C36.5466 34.5582 34.85 35.9999 32.8912 36.9933L34.248 39.6689ZM40.2646 34.5563L42.7069 36.2985C43.0873 35.7653 43.3084 35.1351 43.3446 34.4811L40.3492 34.3154L37.3537 34.1497C37.3803 33.6691 37.5429 33.2059 37.8224 32.814L40.2646 34.5563ZM40.3492 34.3154L43.3446 34.4811C43.3808 33.8271 43.2305 33.1763 42.9112 32.6044L40.2917 34.0667L37.6722 35.5289C37.4376 35.1086 37.3272 34.6303 37.3537 34.1497L40.3492 34.3154ZM40.2917 34.0667L43.0299 32.841C42.7598 32.2374 42.3231 31.7233 41.7712 31.3589L40.1184 33.8625L38.4655 36.3662C38.0656 36.1022 37.7493 35.7297 37.5535 35.2923L40.2917 34.0667ZM40.1184 33.8625L41.7712 31.3589C41.2193 30.9946 40.575 30.7951 39.9138 30.7838L39.8626 33.7833L39.8113 36.7829C39.3322 36.7747 38.8654 36.6302 38.4655 36.3662L40.1184 33.8625ZM39.8626 33.7833L39.8796 30.7834C37.3327 30.7689 34.832 30.1025 32.6156 28.8477L31.1376 31.4583L29.6596 34.069C32.7675 35.8285 36.2741 36.763 39.8455 36.7833L39.8626 33.7833ZM31.1376 31.4583L32.5534 28.8135C30.075 27.4867 27.9815 25.5421 26.476 23.168L23.9425 24.7747L21.409 26.3813C23.4683 29.6286 26.3317 32.2885 29.7217 34.1032L31.1376 31.4583ZM23.9425 24.7747L26.476 23.168C24.9705 20.794 24.1041 18.0712 23.9607 15.2637L20.9646 15.4167L17.9686 15.5696C18.1646 19.4098 19.3498 23.1341 21.409 26.3813L23.9425 24.7747ZM20.9646 15.4167L23.9628 15.3108C23.8997 13.5256 24.1368 11.7424 24.6642 10.0357L21.798 9.15L18.9317 8.26426C18.206 10.6126 17.8798 13.0662 17.9665 15.5226L20.9646 15.4167ZM21.798 9.15L24.6706 10.0151C24.8553 9.40172 24.8732 8.75024 24.7224 8.1277L21.8067 8.83362L18.8909 9.53954C18.7907 9.12572 18.8026 8.69265 18.9254 8.28492L21.798 9.15ZM21.8067 8.83362L24.7224 8.1277C24.5717 7.50515 24.2578 6.934 23.813 6.47306L21.6542 8.55625L19.4955 10.6394C19.1998 10.333 18.9911 9.95337 18.8909 9.53954L21.8067 8.83362ZM21.6542 8.55625L23.8447 6.50637C23.5255 6.16537 23.1391 5.89433 22.7099 5.71037L21.5282 8.46781L20.3464 11.2252C20.0125 11.0822 19.712 10.8714 19.4638 10.6061L21.6542 8.55625ZM21.5282 8.46781L22.7099 5.71037C22.2806 5.5264 21.8179 5.43353 21.3509 5.43762L21.3771 8.4375L21.4034 11.4374C21.0402 11.4406 20.6803 11.3683 20.3464 11.2252L21.5282 8.46781Z" fill="black" mask="url(#path-1-inside-1_115_1119)"/>
</svg>
