<svg width="50" height="50" viewBox="0 0 50 50" fill="none" xmlns="http://www.w3.org/2000/svg">
<path d="M45.8335 24.9999H47.9168M25.0002 4.16659V2.08325M25.0002 47.9166V45.8333M41.6668 41.6666L39.5835 39.5833M41.6668 8.33325L39.5835 10.4166M8.3335 41.6666L10.4168 39.5833M8.3335 8.33325L10.4168 10.4166M2.0835 24.9999H4.16683M25.0002 37.4999C28.3154 37.4999 31.4948 36.183 33.839 33.8388C36.1832 31.4945 37.5002 28.3151 37.5002 24.9999C37.5002 21.6847 36.1832 18.5053 33.839 16.1611C31.4948 13.8169 28.3154 12.4999 25.0002 12.4999C21.685 12.4999 18.5055 13.8169 16.1613 16.1611C13.8171 18.5053 12.5002 21.6847 12.5002 24.9999C12.5002 28.3151 13.8171 31.4945 16.1613 33.8388C18.5055 36.183 21.685 37.4999 25.0002 37.4999Z" stroke="#E6E6E6" stroke-width="2" stroke-linecap="round" stroke-linejoin="round"/>
</svg>
